# xmcd
#
# Track frame offsets: 
#        150
#        11976
#        29310
#        44286
#        65093
#        90032
#        104439
#        125191
#        155805
#        177196
#        194093
#        212406
#        234307
#
# Disc length: 3337 seconds
#
# Revision: 0
# Processed by: cddbd v1.5.2PL0 Copyright (c) Steve Scherf et al.
# Submitted via: ExactAudioCopy v0.99pb3
#
DISCID=b40d070d
DTITLE=Fred Knoblock and Jelly Roll Johnson - Live at the Bluebird Cafe
DYEAR=2000
DGENRE=
TTITLE0=Mistaken Identity
TTITLE1=Can I Come Back
TTITLE2=Feel Better in the Mornin'
TTITLE3=King of Fools
TTITLE4=Stay Away from the Blues
TTITLE5=First Thing Every Mornin'
TTITLE6=Three Verses
TTITLE7=Feels Like Mississippi
TTITLE8=A Lover Is Forever
TTITLE9=Which Side of the Glass
TTITLE10=You Know How Women Are
TTITLE11=Memphis Mornin'
TTITLE12=Cold Feet
EXTD=
EXTT0=
EXTT1=
EXTT2=
EXTT3=
EXTT4=
EXTT5=
EXTT6=
EXTT7=
EXTT8=
EXTT9=
EXTT10=
EXTT11=
EXTT12=
PLAYORDER=
